{"title":"Shower.1999.iNT.DVDrip.XviD.AC3-HigHoT.avi","uid":7584515,"size":736006144,"categoryP":"video","categoryS":"movies","magnet":"?xt=urn:btih:b806d0c9925fb952f2d2168ad684716976a9b3fc&amp;dn=Shower.1999.iNT.DVDrip.XviD.AC3-HigHoT.avi&amp;tr=udp%3A%2F%2Ftracker.openbittorrent.com%3A80&amp;tr=udp%3A%2F%2Fopen.demonii.com%3A1337&amp;tr=udp%3A%2F%2Ftracker.coppersurfer.tk%3A6969&amp;tr=udp%3A%2F%2Fexodus.desync.com%3A6969","seeders":0,"leechers":0,"uploader":"rpessoa","files":1,"time":1346376547,"description":"Shenzhen businessman, Da Ming, goes home to Beijing when he thinks his father has died. He finds his father hard at work at the family's bathhouse (the false message was a ruse of Da's mentally-handicapped, exuberant brother, Er Ming, to get Da home). Da stays a couple days, observing his father being social director, marriage counselor, and dispute mediator for his customers and a boon companion to Er. Da is caught between worlds: the decaying district of his childhood and the booming south where he now lives with a wife who's not met his family. When Da realizes his father's health is failing and the district is slated for razing, he must take stock of family and future. Written by &lt;&lt;a class=&quot;__cf_email__&quot; href=&quot;/cdn-cgi/l/email-protection&quot; data-cfemail=&quot;fc96949d95909985bc949388919d9590d29f9391&quot;&gt;[email&amp;#160;protected]&lt;/a&gt;&lt;script data-cfhash='f9e31' type=&quot;text/javascript&quot;&gt;\n/* &lt;![CDATA[ */!function(){try{var t=&quot;currentScript&quot;in document?document.currentScript:function(){for(var t=document.getElementsByTagName(&quot;script&quot;),e=t.length;e--;)if(t[e].getAttribute(&quot;data-cfhash&quot;))return t[e]}();if(t&amp;&amp;t.previousSibling){var e,r,n,i,c=t.previousSibling,a=c.getAttribute(&quot;data-cfemail&quot;);if(a){for(e=&quot;&quot;,r=parseInt(a.substr(0,2),16),n=2;a.length-n;n+=2)i=parseInt(a.substr(n,2),16)^r,e+=String.fromCharCode(i);e=document.createTextNode(e),c.parentNode.replaceChild(e,c)}t.parentNode.removeChild(t);}}catch(u){}}()/* ]]&gt; */&lt;/script&gt;&gt;\n\nGeneral\nComplete name : Shower.1999.iNT.DVDrip.XviD.AC3-HigHoT.avi\nFormat : AVI\nFormat/Info : Audio Video Interleave\nFile size : 702 MiB\nDuration : 1h 34mn\nOverall bit rate : 1 038 Kbps\nWriting application : VirtualDubMod 1.5.10.1 (build 2439/release)\nWriting library : VirtualDubMod build 2439/release\n\nVideo\nID : 0\nFormat : MPEG-4 Visual\nCodec ID : XVID\nCodec ID/Hint : XviD\nDuration : 1h 34mn\nBit rate : 932 Kbps\nWidth : 624 pixels\nHeight : 368 pixels\nDisplay aspect ratio : 1.696\nFrame rate : 23.976 fps\nColor space : YUV\nChroma subsampling : 4:2:0\nCompression mode : Lossy\nBits/(Pixel*Frame) : 0.169\nStream size : 630 MiB (90%)\n\nAudio\nID : 1\nFormat : MPEG Audio\nFormat version : Version 1\nFormat profile : Layer 3\nMode : Joint stereo\nCodec ID : 55\nCodec ID/Hint : MP3\nDuration : 1h 34mn\nBit rate mode : Variable\nBit rate : 96.0 Kbps\nChannel(s) : 2 channels\nSampling rate : 44.1 KHz\nCompression mode : Lossy\nStream size : 63.5 MiB (9%)\nAlignment : Aligned on interleaves\nInterleave, duration : 26 ms (0.63 video frame)\nInterleave, preload duration : 533 ms\nWriting library : LAME3.93a\nEncoding settings : -m j -V 4 -q 2 -lowpass 15.3 --abr 96","torrent":{"xt":"urn:btih:b806d0c9925fb952f2d2168ad684716976a9b3fc","amp;dn":"Shower.1999.iNT.DVDrip.XviD.AC3-HigHoT.avi","amp;tr":["udp%3A%2F%2Ftracker.openbittorrent.com%3A80","udp%3A%2F%2Fopen.demonii.com%3A1337","udp%3A%2F%2Ftracker.coppersurfer.tk%3A6969","udp%3A%2F%2Fexodus.desync.com%3A6969"],"infoHash":"b806d0c9925fb952f2d2168ad684716976a9b3fc","infoHashBuffer":{"type":"Buffer","data":[184,6,208,201,146,95,185,82,242,210,22,138,214,132,113,105,118,169,179,252]},"announce":[],"urlList":[]}}